<svg xmlns="http://www.w3.org/2000/svg" xmlns:xlink="http://www.w3.org/1999/xlink" viewBox="0,0,256,256" width="30px" height="30px" fill-rule="nonzero"><g fill="#ffffff" fill-rule="nonzero" stroke="none" stroke-width="1" stroke-linecap="butt" stroke-linejoin="miter" stroke-miterlimit="10" stroke-dasharray="" stroke-dashoffset="0" font-family="none" font-weight="none" font-size="none" text-anchor="none" style="mix-blend-mode: normal"><g transform="scale(8.53333,8.53333)"><path d="M15,2c-3.84545,0 -7,3.15455 -7,7v2h-2c-1.1,0 -2,0.9 -2,2v12c0,1.1 0.9,2 2,2h18c1.1,0 2,-0.9 2,-2v-12c0,-1.1 -0.9,-2 -2,-2h-2v-2c0,-0.79524 -0.1094,-1.58992 -0.35156,-2.31641c-0.00544,-0.01643 -0.0113,-0.03271 -0.01758,-0.04883c-1.04058,-2.65927 -3.59496,-4.63477 -6.63086,-4.63477zM15,4c2.15618,0 3.99131,1.41781 4.75586,3.34766c0.15247,0.4695 0.24414,1.05877 0.24414,1.65234v2h-10v-2c0,-2.75455 2.24545,-5 5,-5z"></path></g></g></svg>