<svg width="100" height="75" viewBox="0 0 100 75" fill="none" xmlns="http://www.w3.org/2000/svg">
<path d="M18.1934 74.4054V69.4511C18.2234 69.0345 18.1608 68.6164 18.0097 68.2249C17.8586 67.8333 17.6225 67.4772 17.3171 67.1804C17.0117 66.8835 16.644 66.6526 16.2386 66.5031C15.8332 66.3536 15.3993 66.2889 14.9659 66.3134C14.3985 66.2776 13.8316 66.389 13.3242 66.6359C12.8169 66.8828 12.3878 67.2562 12.0817 67.7171C11.8026 67.2701 11.4034 66.9037 10.926 66.6566C10.4486 66.4096 9.91076 66.291 9.36917 66.3134C8.89707 66.2904 8.42693 66.3866 8.00535 66.5922C7.58376 66.7979 7.22537 67.106 6.96568 67.4859V66.5116H5.18024V74.4054H6.98285V70.0621C6.94451 69.7922 6.96863 69.5175 7.0535 69.2575C7.13837 68.9976 7.28188 68.7589 7.47379 68.5585C7.66569 68.3582 7.90124 68.201 8.16361 68.0984C8.42597 67.9958 8.70866 67.9502 8.99148 67.9648C10.1761 67.9648 10.7769 68.708 10.7769 70.0456V74.4384H12.5795V70.0621C12.5428 69.7925 12.568 69.5183 12.6534 69.2591C12.7389 68.9998 12.8825 68.7617 13.074 68.5617C13.2656 68.3617 13.5005 68.2045 13.7621 68.1014C14.0238 67.9983 14.3058 67.9516 14.5882 67.9648C15.8071 67.9648 16.3908 68.708 16.3908 70.0456V74.4384L18.1934 74.4054ZM44.8635 66.5116H41.9278V64.117H40.1252V66.5116H38.4943V68.0804H40.1595V71.7136C40.1595 73.5467 40.8978 74.6366 43.0094 74.6366C43.7983 74.6392 44.5719 74.4274 45.2412 74.0256L44.7262 72.5558C44.2474 72.8305 43.7039 72.9839 43.1467 73.0017C42.2883 73.0017 41.9622 72.4732 41.9622 71.6806V68.0804H44.8807L44.8635 66.5116ZM60.0913 66.3134C59.656 66.3011 59.2253 66.402 58.8446 66.6054C58.4639 66.8089 58.1473 67.1074 57.9282 67.4694V66.5116H56.1599V74.4054H57.9453V69.9796C57.9453 68.6749 58.529 67.9483 59.6621 67.9483C60.044 67.9433 60.4232 68.0106 60.778 68.1465L61.3274 66.4951C60.9196 66.3547 60.49 66.2821 60.057 66.2804L60.0913 66.3134ZM37.0694 67.1391C36.0587 66.5611 34.8967 66.2745 33.7216 66.3134C31.6443 66.3134 30.2881 67.2712 30.2881 68.8401C30.2881 70.1282 31.2838 70.9209 33.1208 71.1686L33.9792 71.2842C34.9577 71.4163 35.4212 71.664 35.4212 72.1099C35.4212 72.721 34.7689 73.0678 33.55 73.0678C32.5695 73.0951 31.608 72.8042 30.8203 72.242L29.9619 73.5797C31.0019 74.2782 32.2476 74.6372 33.5156 74.6036C35.8848 74.6036 37.2582 73.5302 37.2582 72.0273C37.2582 70.5245 36.1766 69.9135 34.3912 69.6658L33.5328 69.5502C32.7602 69.4511 32.1422 69.3025 32.1422 68.774C32.1422 68.2456 32.7259 67.8492 33.7045 67.8492C34.6089 67.8593 35.4956 68.0925 36.2796 68.5263L37.0694 67.1391ZM84.8901 66.3134C84.4548 66.3011 84.0241 66.402 83.6434 66.6054C83.2627 66.8089 82.9461 67.1074 82.727 67.4694V66.5116H80.9587V74.4054H82.7442V69.9796C82.7442 68.6749 83.3279 67.9483 84.461 67.9483C84.8428 67.9433 85.222 68.0106 85.5769 68.1465L86.1262 66.4951C85.7185 66.3547 85.2889 66.2821 84.8558 66.2804L84.8901 66.3134ZM61.8853 70.442C61.8641 70.9967 61.9635 71.5496 62.1771 72.0653C62.3908 72.5809 62.714 73.048 63.126 73.4366C63.5381 73.8252 64.03 74.1268 64.5702 74.3221C65.1104 74.5173 65.687 74.602 66.2631 74.5706C67.3351 74.623 68.3887 74.2872 69.216 73.6292L68.3576 72.242C67.7404 72.6948 66.9878 72.9438 66.2116 72.9522C65.5517 72.9008 64.936 72.6123 64.4871 72.1441C64.0381 71.676 63.7889 71.0624 63.7889 70.4255C63.7889 69.7885 64.0381 69.175 64.4871 68.7068C64.936 68.2386 65.5517 67.9501 66.2116 67.8988C66.9878 67.9071 67.7404 68.1561 68.3576 68.6089L69.216 67.2217C68.3887 66.5638 67.3351 66.2279 66.2631 66.2804C65.687 66.249 65.1104 66.3336 64.5702 66.5289C64.03 66.7241 63.5381 67.0257 63.126 67.4143C62.714 67.8029 62.3908 68.27 62.1771 68.7857C61.9635 69.3013 61.8641 69.8542 61.8853 70.4089V70.442ZM78.6068 66.5116H76.8213V67.4694C76.5181 67.0941 76.1264 66.7936 75.6787 66.5926C75.2309 66.3916 74.7399 66.2959 74.2461 66.3134C73.1078 66.3134 72.0162 66.7484 71.2113 67.5226C70.4064 68.2969 69.9542 69.347 69.9542 70.442C69.9542 71.5369 70.4064 72.5871 71.2113 73.3613C72.0162 74.1356 73.1078 74.5706 74.2461 74.5706C74.7399 74.5881 75.2309 74.4924 75.6787 74.2914C76.1264 74.0904 76.5181 73.7898 76.8213 73.4146V74.3724H78.6068V66.5116ZM71.9628 70.442C71.9913 69.9773 72.1604 69.5308 72.4493 69.1575C72.7383 68.7841 73.1344 68.5002 73.589 68.3406C74.0436 68.1811 74.5367 68.1529 75.0077 68.2596C75.4787 68.3662 75.907 68.603 76.2399 68.9409C76.5727 69.2787 76.7956 69.7028 76.881 70.161C76.9665 70.6191 76.9108 71.0913 76.7208 71.5194C76.5308 71.9475 76.2148 72.3128 75.8117 72.5703C75.4086 72.8278 74.936 72.9662 74.4521 72.9687C74.1123 72.9728 73.7752 72.9092 73.4621 72.782C73.149 72.6547 72.8667 72.4665 72.6329 72.2292C72.399 71.9919 72.2188 71.7106 72.1035 71.403C71.9882 71.0954 71.9403 70.7682 71.9628 70.442ZM50.4173 66.3134C49.279 66.3287 48.1936 66.7784 47.4 67.5635C46.6064 68.3486 46.1695 69.4048 46.1854 70.4998C46.2014 71.5947 46.6688 72.6388 47.485 73.4022C48.3012 74.1656 49.3992 74.5859 50.5375 74.5706C51.7725 74.6315 52.987 74.249 53.9453 73.4971L53.0869 72.2255C52.4091 72.7484 51.5693 73.039 50.7006 73.0512C50.1104 73.1001 49.5237 72.9255 49.0652 72.5647C48.6067 72.2038 48.3127 71.6852 48.2456 71.1191H54.3401C54.3401 70.9044 54.3401 70.6897 54.3401 70.4585C54.3401 67.9813 52.7435 66.3299 50.443 66.3299L50.4173 66.3134ZM50.4173 67.8492C50.6845 67.8437 50.9501 67.889 51.1991 67.9823C51.4481 68.0756 51.6756 68.2152 51.8685 68.3931C52.0614 68.571 52.216 68.7837 52.3234 69.0191C52.4308 69.2545 52.489 69.5079 52.4946 69.7649H48.2026C48.2337 69.2348 48.4793 68.7375 48.8868 68.3795C49.2943 68.0215 49.8314 67.8311 50.3829 67.8492H50.4173ZM95.1479 63.3408H93.4311V67.4694C93.1279 67.0941 92.7363 66.7936 92.2885 66.5926C91.8407 66.3916 91.3497 66.2959 90.8559 66.3134C89.7176 66.3134 88.626 66.7484 87.8211 67.5226C87.0162 68.2969 86.564 69.347 86.564 70.442C86.564 71.5369 87.0162 72.5871 87.8211 73.3613C88.626 74.1356 89.7176 74.5706 90.8559 74.5706C91.3497 74.5881 91.8407 74.4924 92.2885 74.2914C92.7363 74.0904 93.1279 73.7898 93.4311 73.4146V74.3724H95.1479V63.3408ZM98.1265 73.2577C98.2381 73.2564 98.3489 73.276 98.4527 73.3155C98.5513 73.3542 98.6415 73.4102 98.7188 73.4806C98.7942 73.5518 98.8553 73.6358 98.899 73.7283C98.9425 73.8248 98.9649 73.9287 98.9649 74.0338C98.9649 74.1389 98.9425 74.2429 98.899 74.3394C98.8553 74.4319 98.7942 74.5159 98.7188 74.5871C98.6415 74.6575 98.5513 74.7135 98.4527 74.7522C98.3499 74.7958 98.2388 74.8183 98.1265 74.8183C97.9638 74.8171 97.8047 74.7714 97.668 74.6867C97.5312 74.6019 97.4223 74.4814 97.3539 74.3394C97.311 74.2428 97.2888 74.1389 97.2888 74.0338C97.2888 73.9288 97.311 73.8249 97.3539 73.7283C97.3977 73.6358 97.4588 73.5518 97.5342 73.4806C97.6115 73.4102 97.7017 73.3542 97.8003 73.3155C97.9121 73.2727 98.032 73.253 98.1522 73.2577H98.1265ZM98.1265 74.6531C98.2122 74.6536 98.297 74.6367 98.3754 74.6036C98.4493 74.5719 98.5163 74.527 98.5729 74.4715C98.6802 74.3588 98.7398 74.2115 98.7398 74.0586C98.7398 73.9057 98.6802 73.7584 98.5729 73.6458C98.5164 73.59 98.4494 73.5452 98.3754 73.5136C98.2969 73.4807 98.2121 73.4638 98.1265 73.4641C98.0409 73.4645 97.9563 73.4814 97.8775 73.5136C97.8004 73.5441 97.7304 73.589 97.6715 73.6458C97.5642 73.7584 97.5046 73.9057 97.5046 74.0586C97.5046 74.2115 97.5642 74.3588 97.6715 74.4715C97.7305 74.5281 97.8005 74.573 97.8775 74.6036C97.9641 74.6395 98.058 74.6564 98.1522 74.6531H98.1265ZM98.178 73.6705C98.2581 73.6668 98.3371 73.6902 98.4012 73.7366C98.4274 73.7575 98.4482 73.7841 98.4616 73.8143C98.475 73.8445 98.4808 73.8773 98.4784 73.91C98.4797 73.9374 98.475 73.9648 98.4646 73.9904C98.4543 74.016 98.4385 74.0392 98.4183 74.0586C98.3686 74.1021 98.3051 74.1283 98.2381 74.1329L98.487 74.4054H98.2896L98.0578 74.1329H97.9806V74.4054H97.8175V73.6788L98.178 73.6705ZM97.9891 73.8109V74.0091H98.178C98.2116 74.0187 98.2474 74.0187 98.281 74.0091C98.287 73.9975 98.2902 73.9848 98.2902 73.9719C98.2902 73.959 98.287 73.9463 98.281 73.9348C98.287 73.9232 98.2902 73.9105 98.2902 73.8976C98.2902 73.8847 98.287 73.872 98.281 73.8604C98.2474 73.8508 98.2116 73.8508 98.178 73.8604L97.9891 73.8109ZM88.5469 70.4585C88.5753 69.9938 88.7445 69.5473 89.0334 69.174C89.3223 68.8006 89.7185 68.5167 90.173 68.3571C90.6276 68.1976 91.1208 68.1694 91.5918 68.2761C92.0628 68.3827 92.4911 68.6196 92.8239 68.9574C93.1568 69.2952 93.3796 69.7194 93.4651 70.1775C93.5505 70.6356 93.4948 71.1078 93.3048 71.5359C93.1148 71.964 92.7988 72.3293 92.3957 72.5868C91.9927 72.8443 91.5201 72.9828 91.0362 72.9852C90.6963 72.9893 90.3592 72.9258 90.0461 72.7985C89.733 72.6712 89.4507 72.483 89.2169 72.2457C88.9831 72.0084 88.8029 71.7271 88.6876 71.4195C88.5722 71.1119 88.5243 70.7847 88.5469 70.4585ZM28.2623 66.5116H26.4768V67.4694C26.1736 67.0941 25.782 66.7936 25.3342 66.5926C24.8865 66.3916 24.3955 66.2959 23.9017 66.3134C22.7634 66.3134 21.6717 66.7484 20.8668 67.5226C20.0619 68.2969 19.6097 69.347 19.6097 70.442C19.6097 71.5369 20.0619 72.5871 20.8668 73.3613C21.6717 74.1356 22.7634 74.5706 23.9017 74.5706C24.3955 74.5881 24.8865 74.4924 25.3342 74.2914C25.782 74.0904 26.1736 73.7898 26.4768 73.4146V74.3724H28.2623V66.5116ZM21.6184 70.4585C21.6468 69.9938 21.816 69.5473 22.1049 69.174C22.3938 68.8006 22.79 68.5167 23.2445 68.3571C23.6991 68.1976 24.1922 68.1694 24.6633 68.2761C25.1343 68.3827 25.5626 68.6196 25.8954 68.9574C26.2282 69.2952 26.4511 69.7194 26.5366 70.1775C26.622 70.6356 26.5663 71.1078 26.3763 71.5359C26.1863 71.964 25.8703 72.3293 25.4672 72.5868C25.0641 72.8443 24.5916 72.9828 24.1077 72.9852C23.7664 72.9916 23.4274 72.9298 23.1123 72.8035C22.7971 72.6773 22.5127 72.4894 22.277 72.2519C22.0414 72.0143 21.8596 71.7322 21.7432 71.4235C21.6269 71.1148 21.5785 70.7861 21.6012 70.4585H21.6184Z" fill="#11263A"/>
<path d="M18.1934 74.4054V69.4511C18.2234 69.0345 18.1608 68.6164 18.0097 68.2249C17.8586 67.8333 17.6225 67.4772 17.3171 67.1804C17.0117 66.8835 16.644 66.6526 16.2386 66.5031C15.8332 66.3536 15.3993 66.2889 14.9659 66.3134C14.3985 66.2776 13.8316 66.389 13.3242 66.6359C12.8169 66.8828 12.3878 67.2562 12.0817 67.7171C11.8026 67.2701 11.4034 66.9037 10.926 66.6566C10.4486 66.4096 9.91076 66.291 9.36917 66.3134C8.89707 66.2904 8.42693 66.3866 8.00535 66.5922C7.58376 66.7979 7.22537 67.106 6.96568 67.4859V66.5116H5.18024V74.4054H6.98285V70.0621C6.94451 69.7922 6.96863 69.5175 7.0535 69.2575C7.13837 68.9976 7.28188 68.7589 7.47379 68.5585C7.66569 68.3582 7.90124 68.201 8.16361 68.0984C8.42597 67.9958 8.70866 67.9502 8.99148 67.9648C10.1761 67.9648 10.7769 68.708 10.7769 70.0456V74.4384H12.5795V70.0621C12.5428 69.7925 12.568 69.5183 12.6534 69.2591C12.7389 68.9998 12.8825 68.7617 13.074 68.5617C13.2656 68.3617 13.5005 68.2045 13.7621 68.1014C14.0238 67.9983 14.3058 67.9516 14.5882 67.9648C15.8071 67.9648 16.3908 68.708 16.3908 70.0456V74.4384L18.1934 74.4054ZM44.8635 66.5116H41.9278V64.117H40.1252V66.5116H38.4943V68.0804H40.1595V71.7136C40.1595 73.5467 40.8978 74.6366 43.0094 74.6366C43.7983 74.6392 44.5719 74.4274 45.2412 74.0256L44.7262 72.5558C44.2474 72.8305 43.7039 72.9839 43.1467 73.0017C42.2883 73.0017 41.9622 72.4732 41.9622 71.6806V68.0804H44.8807L44.8635 66.5116ZM60.0913 66.3134C59.656 66.3011 59.2253 66.402 58.8446 66.6054C58.4639 66.8089 58.1473 67.1074 57.9282 67.4694V66.5116H56.1599V74.4054H57.9453V69.9796C57.9453 68.6749 58.529 67.9483 59.6621 67.9483C60.044 67.9433 60.4232 68.0106 60.778 68.1465L61.3274 66.4951C60.9196 66.3547 60.49 66.2821 60.057 66.2804L60.0913 66.3134ZM37.0694 67.1391C36.0587 66.5611 34.8967 66.2745 33.7216 66.3134C31.6443 66.3134 30.2881 67.2712 30.2881 68.8401C30.2881 70.1282 31.2838 70.9209 33.1208 71.1686L33.9792 71.2842C34.9577 71.4163 35.4212 71.664 35.4212 72.1099C35.4212 72.721 34.7689 73.0678 33.55 73.0678C32.5695 73.0951 31.608 72.8042 30.8203 72.242L29.9619 73.5797C31.0019 74.2782 32.2476 74.6372 33.5156 74.6036C35.8848 74.6036 37.2582 73.5302 37.2582 72.0273C37.2582 70.5245 36.1766 69.9135 34.3912 69.6658L33.5328 69.5502C32.7602 69.4511 32.1422 69.3025 32.1422 68.774C32.1422 68.2456 32.7259 67.8492 33.7045 67.8492C34.6089 67.8593 35.4956 68.0925 36.2796 68.5263L37.0694 67.1391ZM84.8901 66.3134C84.4548 66.3011 84.0241 66.402 83.6434 66.6054C83.2627 66.8089 82.9461 67.1074 82.727 67.4694V66.5116H80.9587V74.4054H82.7442V69.9796C82.7442 68.6749 83.3279 67.9483 84.461 67.9483C84.8428 67.9433 85.222 68.0106 85.5769 68.1465L86.1262 66.4951C85.7185 66.3547 85.2889 66.2821 84.8558 66.2804L84.8901 66.3134ZM61.8853 70.442C61.8641 70.9967 61.9635 71.5496 62.1771 72.0653C62.3908 72.5809 62.714 73.048 63.126 73.4366C63.5381 73.8252 64.03 74.1268 64.5702 74.3221C65.1104 74.5173 65.687 74.602 66.2631 74.5706C67.3351 74.623 68.3887 74.2872 69.216 73.6292L68.3576 72.242C67.7404 72.6948 66.9878 72.9438 66.2116 72.9522C65.5517 72.9008 64.936 72.6123 64.4871 72.1441C64.0381 71.676 63.7889 71.0624 63.7889 70.4255C63.7889 69.7885 64.0381 69.175 64.4871 68.7068C64.936 68.2386 65.5517 67.9501 66.2116 67.8988C66.9878 67.9071 67.7404 68.1561 68.3576 68.6089L69.216 67.2217C68.3887 66.5638 67.3351 66.2279 66.2631 66.2804C65.687 66.249 65.1104 66.3336 64.5702 66.5289C64.03 66.7241 63.5381 67.0257 63.126 67.4143C62.714 67.8029 62.3908 68.27 62.1771 68.7857C61.9635 69.3013 61.8641 69.8542 61.8853 70.4089V70.442ZM78.6068 66.5116H76.8213V67.4694C76.5181 67.0941 76.1264 66.7936 75.6787 66.5926C75.2309 66.3916 74.7399 66.2959 74.2461 66.3134C73.1078 66.3134 72.0162 66.7484 71.2113 67.5226C70.4064 68.2969 69.9542 69.347 69.9542 70.442C69.9542 71.5369 70.4064 72.5871 71.2113 73.3613C72.0162 74.1356 73.1078 74.5706 74.2461 74.5706C74.7399 74.5881 75.2309 74.4924 75.6787 74.2914C76.1264 74.0904 76.5181 73.7898 76.8213 73.4146V74.3724H78.6068V66.5116ZM71.9628 70.442C71.9913 69.9773 72.1604 69.5308 72.4493 69.1575C72.7383 68.7841 73.1344 68.5002 73.589 68.3406C74.0436 68.1811 74.5367 68.1529 75.0077 68.2596C75.4787 68.3662 75.907 68.603 76.2399 68.9409C76.5727 69.2787 76.7956 69.7028 76.881 70.161C76.9665 70.6191 76.9108 71.0913 76.7208 71.5194C76.5308 71.9475 76.2148 72.3128 75.8117 72.5703C75.4086 72.8278 74.936 72.9662 74.4521 72.9687C74.1123 72.9728 73.7752 72.9092 73.4621 72.782C73.149 72.6547 72.8667 72.4665 72.6329 72.2292C72.399 71.9919 72.2188 71.7106 72.1035 71.403C71.9882 71.0954 71.9403 70.7682 71.9628 70.442ZM50.4173 66.3134C49.279 66.3287 48.1936 66.7784 47.4 67.5635C46.6064 68.3486 46.1695 69.4048 46.1854 70.4998C46.2014 71.5947 46.6688 72.6388 47.485 73.4022C48.3012 74.1656 49.3992 74.5859 50.5375 74.5706C51.7725 74.6315 52.987 74.249 53.9453 73.4971L53.0869 72.2255C52.4091 72.7484 51.5693 73.039 50.7006 73.0512C50.1104 73.1001 49.5237 72.9255 49.0652 72.5647C48.6067 72.2038 48.3127 71.6852 48.2456 71.1191H54.3401C54.3401 70.9044 54.3401 70.6897 54.3401 70.4585C54.3401 67.9813 52.7435 66.3299 50.443 66.3299L50.4173 66.3134ZM50.4173 67.8492C50.6845 67.8437 50.9501 67.889 51.1991 67.9823C51.4481 68.0756 51.6756 68.2152 51.8685 68.3931C52.0614 68.571 52.216 68.7837 52.3234 69.0191C52.4308 69.2545 52.489 69.5079 52.4946 69.7649H48.2026C48.2337 69.2348 48.4793 68.7375 48.8868 68.3795C49.2943 68.0215 49.8314 67.8311 50.3829 67.8492H50.4173ZM95.1479 63.3408H93.4311V67.4694C93.1279 67.0941 92.7363 66.7936 92.2885 66.5926C91.8407 66.3916 91.3497 66.2959 90.8559 66.3134C89.7176 66.3134 88.626 66.7484 87.8211 67.5226C87.0162 68.2969 86.564 69.347 86.564 70.442C86.564 71.5369 87.0162 72.5871 87.8211 73.3613C88.626 74.1356 89.7176 74.5706 90.8559 74.5706C91.3497 74.5881 91.8407 74.4924 92.2885 74.2914C92.7363 74.0904 93.1279 73.7898 93.4311 73.4146V74.3724H95.1479V63.3408ZM98.1265 73.2577C98.2381 73.2564 98.3489 73.276 98.4527 73.3155C98.5513 73.3542 98.6415 73.4102 98.7188 73.4806C98.7942 73.5518 98.8553 73.6358 98.899 73.7283C98.9425 73.8248 98.9649 73.9287 98.9649 74.0338C98.9649 74.1389 98.9425 74.2429 98.899 74.3394C98.8553 74.4319 98.7942 74.5159 98.7188 74.5871C98.6415 74.6575 98.5513 74.7135 98.4527 74.7522C98.3499 74.7958 98.2388 74.8183 98.1265 74.8183C97.9638 74.8171 97.8047 74.7714 97.668 74.6867C97.5312 74.6019 97.4223 74.4814 97.3539 74.3394C97.311 74.2428 97.2888 74.1389 97.2888 74.0338C97.2888 73.9288 97.311 73.8249 97.3539 73.7283C97.3977 73.6358 97.4588 73.5518 97.5342 73.4806C97.6115 73.4102 97.7017 73.3542 97.8003 73.3155C97.9121 73.2727 98.032 73.253 98.1522 73.2577H98.1265ZM98.1265 74.6531C98.2122 74.6536 98.297 74.6367 98.3754 74.6036C98.4493 74.5719 98.5163 74.527 98.5729 74.4715C98.6802 74.3588 98.7398 74.2115 98.7398 74.0586C98.7398 73.9057 98.6802 73.7584 98.5729 73.6458C98.5164 73.59 98.4494 73.5452 98.3754 73.5136C98.2969 73.4807 98.2121 73.4638 98.1265 73.4641C98.0409 73.4645 97.9563 73.4814 97.8775 73.5136C97.8004 73.5441 97.7304 73.589 97.6715 73.6458C97.5642 73.7584 97.5046 73.9057 97.5046 74.0586C97.5046 74.2115 97.5642 74.3588 97.6715 74.4715C97.7305 74.5281 97.8005 74.573 97.8775 74.6036C97.9641 74.6395 98.058 74.6564 98.1522 74.6531H98.1265ZM98.178 73.6705C98.2581 73.6668 98.3371 73.6902 98.4012 73.7366C98.4274 73.7575 98.4482 73.7841 98.4616 73.8143C98.475 73.8445 98.4808 73.8773 98.4784 73.91C98.4797 73.9374 98.475 73.9648 98.4646 73.9904C98.4543 74.016 98.4385 74.0392 98.4183 74.0586C98.3686 74.1021 98.3051 74.1283 98.2381 74.1329L98.487 74.4054H98.2896L98.0578 74.1329H97.9806V74.4054H97.8175V73.6788L98.178 73.6705ZM97.9891 73.8109V74.0091H98.178C98.2116 74.0187 98.2474 74.0187 98.281 74.0091C98.287 73.9975 98.2902 73.9848 98.2902 73.9719C98.2902 73.959 98.287 73.9463 98.281 73.9348C98.287 73.9232 98.2902 73.9105 98.2902 73.8976C98.2902 73.8847 98.287 73.872 98.281 73.8604C98.2474 73.8508 98.2116 73.8508 98.178 73.8604L97.9891 73.8109ZM88.5469 70.4585C88.5753 69.9938 88.7445 69.5473 89.0334 69.174C89.3223 68.8006 89.7185 68.5167 90.173 68.3571C90.6276 68.1976 91.1208 68.1694 91.5918 68.2761C92.0628 68.3827 92.4911 68.6196 92.8239 68.9574C93.1568 69.2952 93.3796 69.7194 93.4651 70.1775C93.5505 70.6356 93.4948 71.1078 93.3048 71.5359C93.1148 71.964 92.7988 72.3293 92.3957 72.5868C91.9927 72.8443 91.5201 72.9828 91.0362 72.9852C90.6963 72.9893 90.3592 72.9258 90.0461 72.7985C89.733 72.6712 89.4507 72.483 89.2169 72.2457C88.9831 72.0084 88.8029 71.7271 88.6876 71.4195C88.5722 71.1119 88.5243 70.7847 88.5469 70.4585ZM28.2623 66.5116H26.4768V67.4694C26.1736 67.0941 25.782 66.7936 25.3342 66.5926C24.8865 66.3916 24.3955 66.2959 23.9017 66.3134C22.7634 66.3134 21.6717 66.7484 20.8668 67.5226C20.0619 68.2969 19.6097 69.347 19.6097 70.442C19.6097 71.5369 20.0619 72.5871 20.8668 73.3613C21.6717 74.1356 22.7634 74.5706 23.9017 74.5706C24.3955 74.5881 24.8865 74.4924 25.3342 74.2914C25.782 74.0904 26.1736 73.7898 26.4768 73.4146V74.3724H28.2623V66.5116ZM21.6184 70.4585C21.6468 69.9938 21.816 69.5473 22.1049 69.174C22.3938 68.8006 22.79 68.5167 23.2445 68.3571C23.6991 68.1976 24.1922 68.1694 24.6633 68.2761C25.1343 68.3827 25.5626 68.6196 25.8954 68.9574C26.2282 69.2952 26.4511 69.7194 26.5366 70.1775C26.622 70.6356 26.5663 71.1078 26.3763 71.5359C26.1863 71.964 25.8703 72.3293 25.4672 72.5868C25.0641 72.8443 24.5916 72.9828 24.1077 72.9852C23.7664 72.9916 23.4274 72.9298 23.1123 72.8035C22.7971 72.6773 22.5127 72.4894 22.277 72.2519C22.0414 72.0143 21.8596 71.7322 21.7432 71.4235C21.6269 71.1148 21.5785 70.7861 21.6012 70.4585H21.6184Z" fill="#11263A"/>
<path d="M63.5166 6.3584H36.4774V53.1022H63.5166V6.3584Z" fill="#FD6020"/>
<path d="M38.1937 29.7353C38.1887 25.2329 39.2488 20.7884 41.2937 16.7384C43.3386 12.6885 46.3147 9.13915 49.9966 6.35928C45.4378 2.91292 39.963 0.769827 34.1979 0.174949C28.4328 -0.41993 22.6101 0.557401 17.3951 2.99524C12.1801 5.43308 7.78337 9.23308 4.70731 13.9609C1.63125 18.6888 0 24.1537 0 29.7312C0 35.3087 1.63125 40.7736 4.70731 45.5015C7.78337 50.2293 12.1801 54.0293 17.3951 56.4671C22.6101 58.905 28.4328 59.8823 34.1979 59.2874C39.963 58.6926 45.4378 56.5495 49.9966 53.1031C46.3158 50.3241 43.3404 46.7761 41.2956 42.7277C39.2507 38.6792 38.19 34.2363 38.1937 29.7353Z" fill="#E92628"/>
<path d="M100 29.7334C99.9999 35.3113 98.3682 40.7766 95.2916 45.5046C92.215 50.2326 87.8176 54.0325 82.602 56.47C77.3864 58.9075 71.563 59.8842 65.7976 59.2885C60.0322 58.6928 54.5574 56.5486 49.9989 53.1012C53.6782 50.3197 56.6527 46.7707 58.6981 42.7221C60.7435 38.6734 61.8063 34.2307 61.8063 29.7293C61.8063 25.2278 60.7435 20.7852 58.6981 16.7365C56.6527 12.6878 53.6782 9.13883 49.9989 6.35734C54.5574 2.90991 60.0322 0.765774 65.7976 0.170041C71.563 -0.425692 77.3864 0.55101 82.602 2.98851C87.8176 5.426 92.215 9.22593 95.2916 13.9539C98.3682 18.682 99.9999 24.1473 100 29.7251V29.7334Z" fill="#F59E31"/>
<path d="M97.044 48.1472V47.1894H97.4474V46.9912H96.426V47.1894H96.8637V48.1472H97.044ZM99.0269 48.1472V46.9912H98.7178L98.3573 47.8169L97.9968 46.9912H97.7221V48.1472H97.9453V47.2802L98.2801 48.0316H98.5118L98.8466 47.2802V48.1555L99.0269 48.1472Z" fill="#B8B8B8"/>
</svg>
