<svg width="81" height="83" viewBox="0 0 81 83" fill="none" xmlns="http://www.w3.org/2000/svg">
<path d="M55.5938 58.354C56.3796 58.354 57.3618 58.7469 58.3441 59.5327C59.9157 60.9079 60.505 62.4794 59.7192 63.6581C59.3263 64.2475 58.3441 64.6404 57.5583 64.6404C56.576 64.6404 55.5938 64.2475 55.0044 63.6581C53.4328 62.283 53.0399 60.3185 54.0222 59.1398C54.2186 58.7469 54.808 58.354 55.5938 58.354Z" fill="#F28A1A"/>
<path d="M63.648 52.2651C65.0231 52.8544 65.6125 54.8189 65.6125 55.8012C65.8089 57.3727 65.416 58.1585 64.8267 58.1585C64.2373 58.1585 63.4515 57.5692 62.6657 56.1941C61.8799 54.8189 61.487 53.4438 61.8799 52.658C62.4693 52.2651 63.0586 52.0686 63.648 52.2651Z" fill="#F28A1A"/>
<path d="M36.9326 73.8742C16.5018 73.8742 0 57.3725 0 37.1381C0 16.9038 16.5018 0.205566 36.9326 0.205566C57.3633 0.205566 73.8651 16.7073 73.8651 37.1381C73.8651 44.0139 71.9006 50.4967 68.7574 55.9973C68.561 56.1938 68.3645 56.1938 68.3645 55.8009C66.9894 46.7642 61.4888 41.8529 53.6308 40.2813C52.845 40.0849 52.845 39.692 53.8272 39.692C56.3811 39.4955 59.7207 39.4955 61.6852 39.8884C61.8817 38.9062 61.8817 37.9239 61.8817 37.1381C61.8817 23.7795 50.8805 12.7784 37.5219 12.7784C24.1633 12.7784 13.1621 23.7795 13.1621 37.1381C13.1621 50.4967 24.1633 61.4979 37.5219 61.4979H38.7006C38.3077 59.337 38.1113 57.176 38.3077 54.8186C38.3077 53.247 38.7006 53.0506 39.29 54.2293C42.6296 60.1228 47.5408 65.2304 56.9704 67.3914C64.632 69.1594 72.2935 71.1239 80.7409 81.5358C81.5267 82.518 80.348 83.5003 79.5622 82.7145C71.1148 75.2494 63.4533 72.6955 56.3811 72.6955C47.5408 72.892 42.2367 73.8742 36.9326 73.8742Z" fill="#F28A1A"/>
</svg>
