<svg width="148" height="46" viewBox="0 0 148 46" fill="none" xmlns="http://www.w3.org/2000/svg">
<path d="M137.733 0.646973H128.45C125.643 0.646973 123.485 1.5105 122.189 4.31695L104.487 44.6867H117.008C117.008 44.6867 119.167 39.2896 119.599 37.9944C120.894 37.9944 133.199 37.9944 134.926 37.9944C135.358 39.5055 136.438 44.4708 136.438 44.4708H147.663L137.733 0.646973ZM123.053 28.9274C124.132 26.3368 127.802 16.6222 127.802 16.6222C127.802 16.838 128.882 14.0316 129.313 12.5204L130.177 16.4063C130.177 16.4063 132.552 26.9844 132.983 29.1432H123.053V28.9274Z" fill="#3362AB"/>
<path d="M0 1.07788L0.215881 0.214355H18.7816C21.3722 0.214355 23.3151 1.07788 23.9628 3.88433L28.0645 23.3136C23.9628 12.9513 14.464 4.53197 0 1.07788Z" fill="#F9B50B"/>
<path d="M54.1845 0.648498L35.4029 44.4723H22.6659L11.8719 7.77256C19.6436 12.7378 26.12 20.5095 28.4947 25.9066L29.79 30.44L41.4475 0.432617H54.1845V0.648498Z" fill="#3362AB"/>
<path d="M105.35 30.2233C105.35 39.2903 97.1465 45.335 84.4096 45.335C79.0125 45.335 73.8314 44.2556 71.025 42.9603L72.752 33.0298L74.2632 33.6774C78.149 35.4044 80.7396 36.0521 85.489 36.0521C88.9431 36.0521 92.613 34.7568 92.613 31.7345C92.613 29.7915 91.1019 28.4963 86.3525 26.3375C81.819 24.1786 75.7743 20.7246 75.7743 14.464C75.7743 5.82878 84.1937 0 96.0671 0C100.601 0 104.486 0.863523 106.861 1.94293L105.134 11.4417L104.271 10.5782C102.112 9.71463 99.3053 8.85111 95.2036 8.85111C90.6701 9.06699 88.5113 11.0099 88.5113 12.737C88.5113 14.6799 91.1019 16.1911 95.2036 18.134C102.112 21.3722 105.35 25.0422 105.35 30.2233Z" fill="#3362AB"/>
<path d="M59.1522 0.432617H71.0257L63.4699 44.4723H51.5964L59.1522 0.432617Z" fill="#3362AB"/>
</svg>
