<svg width="243" height="300" viewBox="0 0 243 300" fill="none" xmlns="http://www.w3.org/2000/svg">
<g clip-path="url(#clip0_10_5)">
<rect width="243" height="300" fill="white"/>
<rect y="-22" width="262" height="322" fill="#E6C30B"/>
<path d="M55.6122 123.818V150H50.831L39.4403 133.521H39.2486V150H33.7131V123.818H38.571L49.8722 140.284H50.1023V123.818H55.6122ZM84.2454 136.909C84.2454 139.764 83.7042 142.193 82.6218 144.196C81.5479 146.199 80.082 147.729 78.2241 148.786C76.3746 149.834 74.2951 150.358 71.9854 150.358C69.6587 150.358 67.5707 149.83 65.7212 148.773C63.8718 147.716 62.4102 146.186 61.3363 144.183C60.2624 142.18 59.7255 139.756 59.7255 136.909C59.7255 134.054 60.2624 131.625 61.3363 129.622C62.4102 127.619 63.8718 126.094 65.7212 125.045C67.5707 123.989 69.6587 123.46 71.9854 123.46C74.2951 123.46 76.3746 123.989 78.2241 125.045C80.082 126.094 81.5479 127.619 82.6218 129.622C83.7042 131.625 84.2454 134.054 84.2454 136.909ZM78.6332 136.909C78.6332 135.06 78.3562 133.5 77.8022 132.23C77.2567 130.96 76.4854 129.997 75.4883 129.341C74.4911 128.685 73.3235 128.357 71.9854 128.357C70.6474 128.357 69.4798 128.685 68.4826 129.341C67.4854 129.997 66.7099 130.96 66.1559 132.23C65.6104 133.5 65.3377 135.06 65.3377 136.909C65.3377 138.759 65.6104 140.318 66.1559 141.588C66.7099 142.858 67.4854 143.821 68.4826 144.477C69.4798 145.134 70.6474 145.462 71.9854 145.462C73.3235 145.462 74.4911 145.134 75.4883 144.477C76.4854 143.821 77.2567 142.858 77.8022 141.588C78.3562 140.318 78.6332 138.759 78.6332 136.909ZM102.213 123.818V150H96.6779V123.818H102.213ZM106.768 123.818H113.594L120.805 141.409H121.112L128.322 123.818H135.148V150H129.779V132.959H129.562L122.786 149.872H119.13L112.354 132.895H112.137V150H106.768V123.818ZM144.222 150H138.29L147.328 123.818H154.462L163.488 150H157.556L150.998 129.801H150.793L144.222 150ZM143.851 139.709H157.863V144.03H143.851V139.709ZM182.769 132.281C182.59 131.659 182.339 131.109 182.015 130.632C181.691 130.146 181.295 129.737 180.826 129.405C180.366 129.064 179.837 128.804 179.241 128.625C178.653 128.446 178.001 128.357 177.285 128.357C175.947 128.357 174.771 128.689 173.756 129.354C172.751 130.018 171.967 130.986 171.404 132.256C170.842 133.517 170.56 135.06 170.56 136.884C170.56 138.707 170.837 140.259 171.391 141.537C171.945 142.815 172.729 143.791 173.744 144.464C174.758 145.129 175.955 145.462 177.336 145.462C178.589 145.462 179.658 145.24 180.545 144.797C181.44 144.345 182.121 143.71 182.59 142.892C183.067 142.074 183.306 141.107 183.306 139.99L184.431 140.156H177.681V135.989H188.637V139.287C188.637 141.588 188.151 143.565 187.18 145.219C186.208 146.864 184.87 148.134 183.165 149.028C181.461 149.915 179.509 150.358 177.31 150.358C174.856 150.358 172.7 149.817 170.842 148.734C168.984 147.643 167.535 146.097 166.495 144.094C165.464 142.082 164.948 139.696 164.948 136.935C164.948 134.812 165.255 132.92 165.869 131.259C166.491 129.588 167.36 128.173 168.477 127.014C169.593 125.855 170.893 124.973 172.376 124.368C173.859 123.763 175.465 123.46 177.195 123.46C178.678 123.46 180.059 123.678 181.337 124.112C182.616 124.538 183.749 125.143 184.738 125.928C185.735 126.712 186.549 127.645 187.18 128.727C187.81 129.801 188.215 130.986 188.394 132.281H182.769ZM192.795 150V123.818H210.437V128.382H198.331V134.621H209.529V139.185H198.331V145.436H210.488V150H192.795ZM84.4314 198V187.091H88.3199C89.1686 187.091 89.8718 187.245 90.4293 187.554C90.9868 187.863 91.4041 188.286 91.6811 188.822C91.9581 189.355 92.0965 189.955 92.0965 190.623C92.0965 191.294 91.9563 191.897 91.6757 192.434C91.3987 192.966 90.9797 193.389 90.4186 193.701C89.8611 194.01 89.1598 194.165 88.3146 194.165H85.6406V192.769H88.1654C88.7017 192.769 89.1367 192.677 89.4705 192.492C89.8043 192.304 90.0493 192.048 90.2056 191.725C90.3618 191.402 90.4399 191.034 90.4399 190.623C90.4399 190.211 90.3618 189.845 90.2056 189.525C90.0493 189.206 89.8025 188.955 89.4652 188.774C89.1313 188.593 88.691 188.502 88.1441 188.502H86.0774V198H84.4314ZM95.491 187.091V198H93.8983V187.091H95.491ZM100.015 198.181C99.4962 198.181 99.0275 198.085 98.6084 197.893C98.1894 197.698 97.8574 197.416 97.6123 197.047C97.3709 196.677 97.2501 196.224 97.2501 195.688C97.2501 195.227 97.3389 194.847 97.5165 194.548C97.694 194.25 97.9337 194.014 98.2356 193.84C98.5374 193.666 98.8748 193.534 99.2476 193.446C99.6205 193.357 100 193.289 100.388 193.243C100.878 193.186 101.275 193.14 101.581 193.105C101.886 193.066 102.108 193.004 102.247 192.918C102.385 192.833 102.454 192.695 102.454 192.503V192.466C102.454 192 102.323 191.64 102.06 191.384C101.801 191.129 101.414 191.001 100.899 191.001C100.363 191.001 99.9401 191.12 99.6312 191.358C99.3258 191.592 99.1145 191.853 98.9973 192.141L97.5005 191.8C97.678 191.303 97.9373 190.901 98.2782 190.596C98.6226 190.287 99.0186 190.063 99.466 189.925C99.9135 189.783 100.384 189.712 100.878 189.712C101.204 189.712 101.551 189.751 101.916 189.829C102.286 189.903 102.63 190.042 102.95 190.244C103.273 190.447 103.537 190.736 103.743 191.113C103.949 191.485 104.052 191.97 104.052 192.567V198H102.497V196.881H102.433C102.33 197.087 102.176 197.29 101.97 197.489C101.764 197.687 101.499 197.853 101.176 197.984C100.853 198.115 100.466 198.181 100.015 198.181ZM100.361 196.903C100.801 196.903 101.178 196.816 101.49 196.642C101.806 196.468 102.046 196.24 102.209 195.96C102.376 195.676 102.46 195.372 102.46 195.049V193.994C102.403 194.051 102.293 194.104 102.129 194.154C101.97 194.2 101.787 194.241 101.581 194.277C101.375 194.309 101.174 194.339 100.979 194.367C100.784 194.392 100.62 194.413 100.489 194.431C100.18 194.47 99.8975 194.536 99.6418 194.628C99.3897 194.721 99.1873 194.854 99.0346 195.028C98.8854 195.198 98.8109 195.425 98.8109 195.71C98.8109 196.104 98.9565 196.402 99.2476 196.604C99.5388 196.803 99.9099 196.903 100.361 196.903ZM106.887 201.068C106.65 201.068 106.433 201.049 106.238 201.01C106.042 200.974 105.897 200.935 105.801 200.892L106.184 199.587C106.476 199.665 106.735 199.699 106.962 199.689C107.189 199.678 107.39 199.593 107.564 199.433C107.742 199.273 107.898 199.012 108.033 198.65L108.23 198.107L105.236 189.818H106.941L109.013 196.168H109.098L111.17 189.818H112.88L109.508 199.092C109.352 199.518 109.153 199.879 108.912 200.173C108.67 200.472 108.383 200.695 108.049 200.844C107.715 200.994 107.328 201.068 106.887 201.068ZM114.505 198V187.091H116.097V191.145H116.193C116.286 190.974 116.419 190.777 116.593 190.553C116.767 190.33 117.008 190.134 117.317 189.967C117.626 189.797 118.034 189.712 118.542 189.712C119.203 189.712 119.792 189.879 120.311 190.212C120.829 190.546 121.236 191.027 121.531 191.656C121.829 192.284 121.978 193.041 121.978 193.925C121.978 194.809 121.831 195.567 121.536 196.2C121.241 196.828 120.836 197.313 120.321 197.654C119.807 197.991 119.219 198.16 118.558 198.16C118.061 198.16 117.655 198.076 117.338 197.909C117.026 197.743 116.781 197.547 116.603 197.324C116.426 197.1 116.289 196.901 116.193 196.727H116.06V198H114.505ZM116.065 193.909C116.065 194.484 116.149 194.989 116.316 195.422C116.483 195.855 116.724 196.194 117.04 196.439C117.356 196.681 117.743 196.801 118.201 196.801C118.677 196.801 119.075 196.675 119.395 196.423C119.714 196.168 119.956 195.821 120.119 195.385C120.286 194.948 120.369 194.456 120.369 193.909C120.369 193.369 120.288 192.885 120.124 192.455C119.965 192.025 119.723 191.686 119.4 191.438C119.08 191.189 118.681 191.065 118.201 191.065C117.74 191.065 117.349 191.184 117.03 191.422C116.713 191.659 116.474 191.991 116.31 192.418C116.147 192.844 116.065 193.341 116.065 193.909ZM128.949 194.607V189.818H130.547V198H128.981V196.583H128.896C128.708 197.02 128.406 197.384 127.991 197.675C127.579 197.963 127.065 198.107 126.451 198.107C125.926 198.107 125.46 197.991 125.056 197.76C124.654 197.526 124.338 197.18 124.107 196.722C123.88 196.263 123.766 195.697 123.766 195.022V189.818H125.359V194.831C125.359 195.388 125.514 195.832 125.823 196.162C126.132 196.493 126.533 196.658 127.026 196.658C127.325 196.658 127.621 196.583 127.916 196.434C128.214 196.285 128.461 196.059 128.656 195.757C128.855 195.456 128.953 195.072 128.949 194.607ZM136.581 189.818V191.097H131.958V189.818H136.581ZM133.225 198V188.87C133.225 188.359 133.337 187.934 133.561 187.597C133.785 187.256 134.081 187.002 134.451 186.835C134.82 186.665 135.221 186.58 135.654 186.58C135.974 186.58 136.247 186.606 136.475 186.659C136.702 186.709 136.871 186.755 136.981 186.798L136.608 188.087C136.533 188.066 136.437 188.041 136.32 188.012C136.203 187.98 136.061 187.964 135.894 187.964C135.507 187.964 135.23 188.06 135.063 188.252C134.9 188.444 134.818 188.721 134.818 189.083V198H133.225ZM142.118 189.818V191.097H137.495V189.818H142.118ZM138.762 198V188.87C138.762 188.359 138.874 187.934 139.098 187.597C139.322 187.256 139.618 187.002 139.988 186.835C140.357 186.665 140.758 186.58 141.191 186.58C141.511 186.58 141.784 186.606 142.012 186.659C142.239 186.709 142.408 186.755 142.518 186.798L142.145 188.087C142.07 188.066 141.974 188.041 141.857 188.012C141.74 187.98 141.598 187.964 141.431 187.964C141.044 187.964 140.767 188.06 140.6 188.252C140.437 188.444 140.355 188.721 140.355 189.083V198H138.762ZM143.961 198.101C143.67 198.101 143.42 197.998 143.21 197.792C143.001 197.583 142.896 197.331 142.896 197.036C142.896 196.745 143.001 196.496 143.21 196.29C143.42 196.081 143.67 195.976 143.961 195.976C144.253 195.976 144.503 196.081 144.712 196.29C144.922 196.496 145.027 196.745 145.027 197.036C145.027 197.231 144.977 197.411 144.878 197.574C144.782 197.734 144.654 197.862 144.494 197.957C144.334 198.053 144.157 198.101 143.961 198.101ZM147.16 198V189.818H148.699V191.118H148.785C148.934 190.678 149.197 190.331 149.573 190.079C149.953 189.824 150.383 189.696 150.862 189.696C150.962 189.696 151.079 189.699 151.214 189.706C151.352 189.713 151.46 189.722 151.539 189.733V191.256C151.475 191.239 151.361 191.219 151.198 191.198C151.034 191.173 150.871 191.161 150.708 191.161C150.331 191.161 149.996 191.24 149.701 191.4C149.41 191.556 149.179 191.775 149.008 192.055C148.838 192.332 148.753 192.648 148.753 193.004V198H147.16ZM158.1 194.607V189.818H159.698V198H158.132V196.583H158.046C157.858 197.02 157.556 197.384 157.141 197.675C156.729 197.963 156.216 198.107 155.602 198.107C155.076 198.107 154.611 197.991 154.206 197.76C153.805 197.526 153.489 197.18 153.258 196.722C153.03 196.263 152.917 195.697 152.917 195.022V189.818H154.51V194.831C154.51 195.388 154.664 195.832 154.973 196.162C155.282 196.493 155.683 196.658 156.177 196.658C156.475 196.658 156.772 196.583 157.066 196.434C157.365 196.285 157.611 196.059 157.807 195.757C158.006 195.456 158.103 195.072 158.1 194.607Z" fill="black"/>
</g>
<defs>
<clipPath id="clip0_10_5">
<rect width="243" height="300" fill="white"/>
</clipPath>
</defs>
</svg>
